<svg width="145" height="145" viewBox="0 0 145 145" fill="none" xmlns="http://www.w3.org/2000/svg">
<rect width="145" height="145" rx="20" fill="#010B40"/>
<path d="M114.583 23.3077H101.958V19.1538C101.958 18.0522 101.515 16.9956 100.726 16.2166C99.9365 15.4376 98.8661 15 97.75 15C96.6339 15 95.5635 15.4376 94.7743 16.2166C93.985 16.9956 93.5417 18.0522 93.5417 19.1538V23.3077H51.4583V19.1538C51.4583 18.0522 51.015 16.9956 50.2257 16.2166C49.4365 15.4376 48.3661 15 47.25 15C46.1339 15 45.0635 15.4376 44.2743 16.2166C43.485 16.9956 43.0417 18.0522 43.0417 19.1538V23.3077H30.4167C28.1844 23.3077 26.0436 24.183 24.4652 25.741C22.8868 27.299 22 29.412 22 31.6154V114.692C22 116.896 22.8868 119.009 24.4652 120.567C26.0436 122.125 28.1844 123 30.4167 123H114.583C116.816 123 118.956 122.125 120.535 120.567C122.113 119.009 123 116.896 123 114.692V31.6154C123 29.412 122.113 27.299 120.535 25.741C118.956 24.183 116.816 23.3077 114.583 23.3077ZM94.4149 76.0927L69.1649 101.016C68.7741 101.402 68.3099 101.708 67.799 101.917C67.2882 102.126 66.7405 102.234 66.1875 102.234C65.6345 102.234 65.0868 102.126 64.576 101.917C64.0651 101.708 63.6009 101.402 63.2101 101.016L50.5851 88.5542C49.7954 87.7748 49.3518 86.7177 49.3518 85.6154C49.3518 84.5131 49.7954 83.456 50.5851 82.6765C51.3748 81.8971 52.4458 81.4592 53.5625 81.4592C54.6792 81.4592 55.7502 81.8971 56.5399 82.6765L66.1875 92.2044L88.4601 70.215C88.8511 69.8291 89.3153 69.5229 89.8261 69.3141C90.337 69.1052 90.8845 68.9977 91.4375 68.9977C91.9905 68.9977 92.538 69.1052 93.0489 69.3141C93.5597 69.5229 94.0239 69.8291 94.4149 70.215C94.8059 70.6009 95.116 71.0591 95.3277 71.5634C95.5393 72.0676 95.6482 72.6081 95.6482 73.1538C95.6482 73.6996 95.5393 74.2401 95.3277 74.7443C95.116 75.2486 94.8059 75.7068 94.4149 76.0927ZM30.4167 48.2308V31.6154H43.0417V35.7692C43.0417 36.8709 43.485 37.9274 44.2743 38.7064C45.0635 39.4854 46.1339 39.9231 47.25 39.9231C48.3661 39.9231 49.4365 39.4854 50.2257 38.7064C51.015 37.9274 51.4583 36.8709 51.4583 35.7692V31.6154H93.5417V35.7692C93.5417 36.8709 93.985 37.9274 94.7743 38.7064C95.5635 39.4854 96.6339 39.9231 97.75 39.9231C98.8661 39.9231 99.9365 39.4854 100.726 38.7064C101.515 37.9274 101.958 36.8709 101.958 35.7692V31.6154H114.583V48.2308H30.4167Z" fill="#1ED96F"/>
</svg>
